<svg width="25" height="25" viewBox="0 0 25 25" fill="none" xmlns="http://www.w3.org/2000/svg">
<path d="M1 1V23.1786C1 23.3964 1.08654 23.6054 1.24059 23.7594C1.39464 23.9135 1.60357 24 1.82143 24H24" stroke="black" stroke-opacity="0.6" stroke-width="2" stroke-linecap="round" stroke-linejoin="round"/>
<path d="M7.36625 10.8574H5.31267C4.7456 10.8574 4.28589 11.3171 4.28589 11.8842V19.6878C4.28589 20.2549 4.7456 20.7146 5.31267 20.7146H7.36625C7.93332 20.7146 8.39303 20.2549 8.39303 19.6878V11.8842C8.39303 11.3171 7.93332 10.8574 7.36625 10.8574Z" stroke="black" stroke-opacity="0.6" stroke-width="2" stroke-linecap="round" stroke-linejoin="round"/>
<path d="M14.7589 8.39258H12.7054C12.1383 8.39258 11.6786 8.85229 11.6786 9.41936V19.6872C11.6786 20.2543 12.1383 20.714 12.7054 20.714H14.7589C15.326 20.714 15.7857 20.2543 15.7857 19.6872V9.41936C15.7857 8.85229 15.326 8.39258 14.7589 8.39258Z" stroke="black" stroke-opacity="0.6" stroke-width="2" stroke-linecap="round" stroke-linejoin="round"/>
<path d="M22.1333 5.10742H20.0798C19.5127 5.10742 19.053 5.56713 19.053 6.13421V19.6878C19.053 20.2549 19.5127 20.7146 20.0798 20.7146H22.1333C22.7004 20.7146 23.1601 20.2549 23.1601 19.6878V6.13421C23.1601 5.56713 22.7004 5.10742 22.1333 5.10742Z" stroke="black" stroke-opacity="0.6" stroke-width="2" stroke-linecap="round" stroke-linejoin="round"/>
</svg>
